"Maureen O’Hara and Lucille Ball star as dancers in this romantic comedy about two very different personalities in the same chorus line.  O’Hara is the young Irish red head (complete with her original accent) who loves classical dance more than anything in the world, and Ball is the burlesque queen who loves rich men.  The romance comes in when they end up competing for the same man, but it’s not really all that important who wins.  The most significant theme is that of the serious dancer struggling to overcome her crass, bourgeois surroundings and establish herself as an artist.

O’Hara may have received top billing in this film, but with the exception of a scene in which Judy lashes out at the jeering burlesque crowd who is mocking her classical dance, Ball steals the show with her outlandish personality and entertaining strip tease dances.  Overall it’s interesting as one of O’Hara’s earliest films (her second in the U.S.), but you’ll get more out of it if you’re a Lucy fan anxious to see her on the big screen. Oh, and if you like cat fights, this film has a tempestuous one. "


   General
      Complete name : dance.girl.dance.1940.dvdrip.xvid.fragment.avi
      Format : AVI
      Format/Info : Audio Video Interleave
      File size : 699 MiB
      Duration : 1h 29mn
      Overall bit rate : 1 091 Kbps
      Writing application : Nandub v1.0rc2
      Writing library : Nandub build 1852/release
   Video #0
      ID : 0
      Format : MPEG-4 Visual
      Format profile : AdvancedSimple@L5
      Format settings, BVOP : Yes
      Format settings, QPel : No
      Format settings, GMC : No warppoints
      Format settings, Matrix : Default (H.263)
      Muxing mode : Packed bitstream
      Codec ID : XVID
      Codec ID/Hint : XviD
      Duration : 1h 29mn
      Bit rate : 988 Kbps
      Width : 528 pixels
      Height : 384 pixels
      Display aspect ratio : 1.375
      Frame rate : 23.976 fps
      Resolution : 24 bits
      Colorimetry : 4:2:0
      Scan type : Progressive
      Bits/(Pixel*Frame) : 0.203
      Stream size : 632 MiB (90%)
      Writing library : XviD 1.0.3 (UTC 2004-12-20)
   Audio #1
      ID : 1
      Format : MPEG Audio
      Format version : Version 1
      Format profile : Layer 3
      Codec ID : 55
      Codec ID/Hint : MP3
      Duration : 1h 29mn
      Bit rate mode : Constant
      Bit rate : 32.0 Kbps
      Channel(s) : 1 channel
      Sampling rate : 48.0 KHz
      Resolution : 16 bits
      Stream size : 58.2 MiB (8%)
      Alignment : Aligned on interleaves
      Interleave, duration : 24 ms (0.58 video frame)
      Interleave, preload duration : 168 ms
      Writing library : LAME3.93UUUUUULAME3.
 
http://www.imdb.com/title/tt0032376/

English audio; English and French subpack

Dorothy Arzner - Dance, Girl, Dance (1940)